# xmcd CD database file
#
# Track frame offsets:
#	150
#	24845
#	47700
#	69575
#	90680
#	108980
#	129177
#	148220
#	165278
#	179835
#	201525
#	225055
#	244858
#	267880
#	289700
#	309880
#
# Disc length: 4398 seconds
#
# Revision: 0
# Processed by: cddbd v1.5.1PL0 Copyright (c) Steve Scherf et al.
# Submitted via: CDex 1.51
#
DISCID=d7112c10
DTITLE=北島三郎 - 北島三郎全曲集
DYEAR=2003
DGENRE=Vocal
TTITLE0=大河
TTITLE1=恩返し
TTITLE2=花の生涯
TTITLE3=箱根のおんな
TTITLE4=与作
TTITLE5=情（なさけ）
TTITLE6=北の兄弟
TTITLE7=博多の女
TTITLE8=函館の女
TTITLE9=北の男船
TTITLE10=北のわかれ雪
TTITLE11=夫婦絶唱
TTITLE12=橋
TTITLE13=ふたつ星
TTITLE14=男の劇場
TTITLE15=天命
EXTD=YEAR: 2003
EXTT0=
EXTT1=
EXTT2=
EXTT3=
EXTT4=
EXTT5=
EXTT6=
EXTT7=
EXTT8=
EXTT9=
EXTT10=
EXTT11=
EXTT12=
EXTT13=
EXTT14=
EXTT15=
PLAYORDER=
